Coordinates
version=1
nRows=8
nColumns=33
inDegrees=yes

Units are S.I. units (second, meters, Newtons, ...)
Angles are in degrees.

endheader
time	ground_thorax_rot_x	ground_thorax_rot_y	ground_thorax_rot_z	ground_thorax_tx	ground_thorax_ty	ground_thorax_tz	clav_prot_r	clav_elev_r	scapula_abduction_r	scapula_elevation_r	scapula_upward_rot_r	scapula_winging_r	shoulder_elv_r	plane_of_elev_r	axial_rot_r	elbow_flexion_r	pro_sup_r	wrist_flex_r	wrist_dev_r	clav_prot_l	clav_elev_l	scapula_abduction_l	scapula_elevation_l	scapula_upward_rot_l	scapula_winging_l	shoulder_elv_l	plane_of_elev_l	axial_rot_l	elbow_flexion_l	pro_sup_l	wrist_flex_l	wrist_dev_l
      8.33000000	     20.88834793	     34.56040804	     54.01536624	     -2.66643446	    800.76085456	    -40.83454431	     13.31839903	     35.71965478	     27.67546045	     45.00000000	    -45.00000000	  -1882.54264670	  -1728.47099956	     23.35728229	    179.99999979	   1082.22488265	   -174.45031432	     12.73860834	     13.41901675	    -11.87556098	    -45.00000000	    -37.29373555	     45.00000000	    -45.00000000	  -3858.22840394	  -2083.05300193	     26.25646253	     32.78378341	    -10.20105457	     44.40382336	     12.17179027	    -15.54993641
      8.34000000	     21.21208134	     34.40493618	     53.44752026	     -4.04517673	    801.78949747	    -40.92264733	     13.34212496	     35.69589530	     27.82601706	     45.00000000	    -45.00000000	  -1882.81354521	  -1728.46157961	     23.65138060	    179.99999979	   1082.24861335	   -174.68719144	     12.79490971	     13.78243592	    -11.71914759	    -45.00000000	    -37.54730326	     45.00000000	    -45.00000000	  -3858.13780531	  -2083.05745453	     26.50392727	     33.19187754	    -10.16453114	     44.18976155	     12.40015327	    -15.86639574
      8.35000000	     20.94885067	     34.53303016	     53.68515883	     -5.44896139	    802.84922650	    -41.00978548	     13.39557634	     35.75098707	     27.77462005	     45.00000000	    -45.00000000	  -1882.84344982	  -1728.40822530	     23.33559431	    179.99999979	   1082.05972195	   -175.03615562	     12.87111113	     13.30578540	    -11.64700599	    -45.00000000	    -37.57790944	     45.00000000	    -45.00000000	  -3858.15798513	  -2082.75372240	     26.46018607	     33.45332372	    -10.19916154	     44.00717654	     12.25805864	    -15.66953176
      8.36000000	     21.19888096	     34.32455390	     53.36841671	     -6.87607418	    803.94019049	    -41.09658765	     13.33244697	     35.65877594	     28.07848670	     45.00000000	    -45.00000000	  -1883.00834529	  -1728.37279218	     23.47196399	    179.99999979	   1082.12955864	   -175.33699822	     12.89589140	     13.65674210	    -11.48776464	    -45.00000000	    -37.67832034	     45.00000000	    -45.00000000	  -3858.09827462	  -2082.67936470	     26.43228573	     33.54834157	    -10.20111963	     43.77473782	     12.46030819	    -15.91376468
      8.37000000	     21.23414035	     34.34676649	     53.24682382	     -8.32749045	    805.06400546	    -41.18405392	     13.39410078	     35.61164850	     28.00524927	     45.00000000	    -45.00000000	  -1883.13861520	  -1728.20861274	     23.51061127	    179.99999979	   1082.03836432	   -175.68312113	     12.93978769	     13.66506630	    -11.33861479	    -45.00000000	    -37.79473511	     45.00000000	    -45.00000000	  -3858.00602152	  -2082.61219467	     26.52410358	     33.91124496	    -10.13760031	     43.53373312	     12.49984428	    -15.96980308
      8.38000000	     21.39114012	     34.22669348	     53.00036525	     -9.79906861	    806.21814995	    -41.27261181	     13.42916226	     35.62085394	     28.17486771	     45.00000000	    -45.00000000	  -1883.28982725	  -1728.16158011	     23.55996828	    179.99999979	   1081.97310824	   -176.01911314	     12.99905491	     13.69533930	    -11.33357128	    -45.00000000	    -37.81669753	     45.00000000	    -45.00000000	  -3858.03702924	  -2082.46411090	     26.49113732	     34.09365768	    -10.13321907	     43.29973114	     12.58698519	    -16.05710980
      8.39000000	     21.46458163	     34.19687604	     52.79360427	    -11.29304536	    807.40414864	    -41.36226713	     13.46941056	     35.57185396	     28.19411840	     45.00000000	    -45.00000000	  -1883.41764776	  -1728.10544133	     23.56905377	    179.99999979	   1081.91227360	   -176.35156762	     13.05077200	     13.74800485	    -11.22129669	    -45.00000000	    -37.95670528	     45.00000000	    -45.00000000	  -3858.01769916	  -2082.32474983	     26.55160532	     34.31316989	    -10.14872351	     43.07361990	     12.66296055	    -16.11126310
      8.40000000	     21.54050481	     34.12039810	     52.60601517	    -12.80453658	    808.61730295	    -41.45148615	     13.47220659	     35.54119546	     28.24243568	     45.00000000	    -45.00000000	  -1883.55647606	  -1728.03311107	     23.62784210	    179.99999979	   1081.82982796	   -176.67040754	     13.11892429	     13.80654428	    -11.05292847	    -45.00000000	    -38.07299902	     45.00000000	    -45.00000000	  -3857.97142430	  -2082.20630349	     26.61234792	     34.55583222	    -10.18761488	     42.86713767	     12.75764222	    -16.17201082
